<svg width="800" height="600" viewBox="0 0 800 600" fill="none" xmlns="http://www.w3.org/2000/svg">
  <defs>
    <linearGradient id="brainGradient" x1="0%" y1="0%" x2="100%" y2="100%">
      <stop offset="0%" style="stop-color:#7C3AED;stop-opacity:1" />
      <stop offset="100%" style="stop-color:#3B82F6;stop-opacity:1" />
    </linearGradient>
    <radialGradient id="glowGradient" cx="50%" cy="50%" r="50%">
      <stop offset="0%" style="stop-color:#60A5FA;stop-opacity:0.8" />
      <stop offset="100%" style="stop-color:#1E40AF;stop-opacity:0.2" />
    </radialGradient>
  </defs>
  <rect width="800" height="600" fill="url(#brainGradient)"/>
  
  <!-- 3D Brain outline -->
  <g transform="translate(400, 300)">
    <!-- Main brain shape -->
    <ellipse cx="0" cy="0" rx="150" ry="120" fill="url(#glowGradient)" stroke="#60A5FA" stroke-width="2"/>
    
    <!-- Brain hemispheres -->
    <path d="M-150 -60 Q-100 -100, -50 -80 Q0 -120, 50 -80 Q100 -100, 150 -60 Q120 -20, 80 -40 Q40 -60, 0 -40 Q-40 -60, -80 -40 Q-120 -20, -150 -60" 
          fill="none" stroke="#A78BFA" stroke-width="2" opacity="0.8"/>
    
    <!-- Neural pathways -->
    <g stroke="#10B981" stroke-width="1.5" fill="none" opacity="0.7">
      <path d="M-80 -40 Q-40 -20, 0 -40 Q40 -20, 80 -40"/>
      <path d="M-100 0 Q-50 20, 0 0 Q50 20, 100 0"/>
      <path d="M-80 40 Q-40 60, 0 40 Q40 60, 80 40"/>
      
      <!-- Vertical connections -->
      <path d="M-60 -60 Q-60 -20, -60 20 Q-60 60, -60 80"/>
      <path d="M0 -80 Q0 -40, 0 0 Q0 40, 0 80"/>
      <path d="M60 -60 Q60 -20, 60 20 Q60 60, 60 80"/>
    </g>
    
    <!-- Neural nodes -->
    <g fill="#F59E0B" opacity="0.9">
      <circle cx="-80" cy="-40" r="4"/>
      <circle cx="-40" cy="-20" r="3"/>
      <circle cx="0" cy="-40" r="4"/>
      <circle cx="40" cy="-20" r="3"/>
      <circle cx="80" cy="-40" r="4"/>
      
      <circle cx="-100" cy="0" r="3"/>
      <circle cx="-50" cy="20" r="4"/>
      <circle cx="0" cy="0" r="5"/>
      <circle cx="50" cy="20" r="4"/>
      <circle cx="100" cy="0" r="3"/>
      
      <circle cx="-80" cy="40" r="3"/>
      <circle cx="-40" cy="60" r="4"/>
      <circle cx="0" cy="40" r="3"/>
      <circle cx="40" cy="60" r="4"/>
      <circle cx="80" cy="40" r="3"/>
    </g>
  </g>
  
  <!-- Data visualization elements -->
  <g transform="translate(100, 100)" stroke="#60A5FA" stroke-width="2" fill="none" opacity="0.6">
    <rect x="0" y="0" width="120" height="80" rx="8"/>
    <path d="M10 40 L20 30 L30 50 L40 20 L50 40 L60 25 L70 45 L80 30 L90 40 L100 25 L110 35"/>
  </g>
  
  <g transform="translate(580, 400)" stroke="#10B981" stroke-width="2" fill="none" opacity="0.6">
    <rect x="0" y="0" width="120" height="80" rx="8"/>
    <circle cx="60" cy="40" r="25"/>
    <path d="M35 40 L60 15 L85 40 L60 65 Z" fill="#10B981" opacity="0.3"/>
  </g>
</svg>