<svg width="800" height="600" viewBox="0 0 800 600" fill="none" xmlns="http://www.w3.org/2000/svg">
  <defs>
    <linearGradient id="heroGradient" x1="0%" y1="0%" x2="100%" y2="100%">
      <stop offset="0%" style="stop-color:#3B82F6;stop-opacity:1" />
      <stop offset="100%" style="stop-color:#1E40AF;stop-opacity:1" />
    </linearGradient>
  </defs>
  <rect width="800" height="600" fill="url(#heroGradient)"/>
  
  <!-- Medical Cross -->
  <g transform="translate(350, 250)">
    <rect x="40" y="0" width="20" height="100" fill="white" opacity="0.9"/>
    <rect x="0" y="40" width="100" height="20" fill="white" opacity="0.9"/>
  </g>
  
  <!-- Stethoscope -->
  <g transform="translate(200, 150)" stroke="white" stroke-width="3" fill="none" opacity="0.7">
    <path d="M20 20 Q30 10, 40 20 Q50 30, 40 40 Q30 50, 20 40 Q10 30, 20 20"/>
    <path d="M30 40 L30 80 Q30 100, 50 100 Q70 100, 70 80 L70 60"/>
    <circle cx="70" cy="50" r="10" stroke-width="2"/>
  </g>
  
  <!-- Brain scan lines -->
  <g transform="translate(500, 200)" stroke="white" stroke-width="2" opacity="0.6">
    <path d="M0 0 Q20 -10, 40 0 Q60 10, 80 0 Q100 -10, 120 0"/>
    <path d="M0 20 Q20 10, 40 20 Q60 30, 80 20 Q100 10, 120 20"/>
    <path d="M0 40 Q20 30, 40 40 Q60 50, 80 40 Q100 30, 120 40"/>
  </g>
  
  <!-- Medical monitor -->
  <g transform="translate(100, 400)">
    <rect x="0" y="0" width="120" height="80" rx="8" fill="white" opacity="0.8"/>
    <rect x="10" y="10" width="100" height="50" fill="#1E40AF"/>
    <path d="M20 35 L30 25 L40 45 L50 15 L60 35 L70 25 L80 35 L90 25 L100 35" stroke="#00FF88" stroke-width="2" fill="none"/>
  </g>
  
  <!-- DNA Helix -->
  <g transform="translate(600, 100)" stroke="white" stroke-width="2" fill="none" opacity="0.5">
    <path d="M0 0 Q10 20, 0 40 Q-10 60, 0 80 Q10 100, 0 120"/>
    <path d="M20 0 Q10 20, 20 40 Q30 60, 20 80 Q10 100, 20 120"/>
    <line x1="0" y1="20" x2="20" y2="20"/>
    <line x1="0" y1="60" x2="20" y2="60"/>
    <line x1="0" y1="100" x2="20" y2="100"/>
  </g>
</svg>