<svg width="800" height="600" viewBox="0 0 800 600" fill="none" xmlns="http://www.w3.org/2000/svg">
  <defs>
    <linearGradient id="scanGradient" x1="0%" y1="0%" x2="100%" y2="100%">
      <stop offset="0%" style="stop-color:#1F2937;stop-opacity:1" />
      <stop offset="100%" style="stop-color:#374151;stop-opacity:1" />
    </linearGradient>
  </defs>
  <rect width="800" height="600" fill="url(#scanGradient)"/>
  
  <!-- X-ray screen -->
  <rect x="150" y="100" width="500" height="400" rx="20" fill="#000000" stroke="#60A5FA" stroke-width="3"/>
  
  <!-- Chest X-ray outline -->
  <g transform="translate(400, 300)" stroke="#60A5FA" stroke-width="2" fill="none" opacity="0.8">
    <!-- Ribcage -->
    <ellipse cx="0" cy="0" rx="120" ry="80"/>
    <path d="M-100 -40 Q-80 -60, -60 -40 Q-40 -20, -20 -40 Q0 -60, 20 -40 Q40 -20, 60 -40 Q80 -60, 100 -40"/>
    <path d="M-100 -20 Q-80 -40, -60 -20 Q-40 0, -20 -20 Q0 -40, 20 -20 Q40 0, 60 -20 Q80 -40, 100 -20"/>
    <path d="M-100 0 Q-80 -20, -60 0 Q-40 20, -20 0 Q0 -20, 20 0 Q40 20, 60 0 Q80 -20, 100 0"/>
    <path d="M-100 20 Q-80 0, -60 20 Q-40 40, -20 20 Q0 0, 20 20 Q40 40, 60 20 Q80 0, 100 20"/>
    
    <!-- Spine -->
    <line x1="0" y1="-80" x2="0" y2="80" stroke-width="3"/>
    
    <!-- Heart outline -->
    <path d="M-20 -10 Q-30 -20, -40 -10 Q-50 0, -40 10 L0 40 L40 10 Q50 0, 40 -10 Q30 -20, 20 -10 Q10 -20, 0 -10 Q-10 -20, -20 -10" fill="#60A5FA" opacity="0.3"/>
  </g>
  
  <!-- Medical data points -->
  <g fill="#10B981" opacity="0.7">
    <circle cx="200" cy="150" r="3"/>
    <circle cx="250" cy="180" r="3"/>
    <circle cx="300" cy="160" r="3"/>
    <circle cx="500" cy="170" r="3"/>
    <circle cx="550" cy="190" r="3"/>
    <circle cx="600" cy="160" r="3"/>
  </g>
  
  <!-- Scan lines -->
  <g stroke="#10B981" stroke-width="1" opacity="0.5">
    <line x1="150" y1="200" x2="650" y2="200"/>
    <line x1="150" y1="250" x2="650" y2="250"/>
    <line x1="150" y1="300" x2="650" y2="300"/>
    <line x1="150" y1="350" x2="650" y2="350"/>
    <line x1="150" y1="400" x2="650" y2="400"/>
  </g>
</svg>